<svg width="200px" height="100px" viewBox="0 0 184 52" xmlns="http://www.w3.org/2000/svg"><g id="fontsvg1731140649634" stroke-linecap="round" fill-rule="evenodd" fill="#000000"><path d="M 167.45 37.45 L 174.65 50 L 160.25 50 L 153 37.5 L 138.6 37.5 L 145.8 50 L 131.35 50 L 124.15 37.5 L 145.8 0 L 160.25 0 L 145.8 25 L 160.25 25 L 174.65 0 L 181.9 12.5 L 167.45 37.45 Z M 41.35 0 L 43.3 0 L 36.1 12.5 L 21.65 12.5 L 36.1 37.5 L 28.85 50 L 0 50 L 7.2 37.5 L 21.65 37.5 L 7.2 12.5 L 14.45 0 L 41.35 0 Z M 83.45 0 L 85.4 0 L 78.2 12.5 L 63.75 12.5 L 78.2 37.5 L 70.95 50 L 42.1 50 L 49.3 37.5 L 63.75 37.5 L 49.3 12.5 L 56.55 0 L 83.45 0 Z M 125.55 0 L 127.5 0 L 120.3 12.5 L 105.85 12.5 L 120.3 37.5 L 113.05 50 L 84.2 50 L 91.4 37.5 L 105.85 37.5 L 91.4 12.5 L 98.65 0 L 125.55 0 Z" vector-effect="non-scaling-stroke"/></g></svg>
